HIERARCHY
ROOT Hips
{
	OFFSET 0.000000 89.005402 0.000000
	CHANNELS 6 Xposition Yposition Zposition Xrotation Yrotation Zrotation
	JOINT Spine
	{
		OFFSET 0.116900 10.681000 0.373400
		CHANNELS 3 Xrotation Yrotation Zrotation
		JOINT Spine1
		{
			OFFSET 0.000000 13.840401 0.053500
			CHANNELS 3 Xrotation Yrotation Zrotation
			JOINT Spine2
			{
				OFFSET 0.000000 14.712700 -0.366200
				CHANNELS 3 Xrotation Yrotation Zrotation
				JOINT Neck
				{
					OFFSET 0.000000 35.415497 -3.314200
					CHANNELS 3 Xrotation Yrotation Zrotation
					JOINT Head
					{
						OFFSET 0.000000 16.899200 1.218300
						CHANNELS 3 Xrotation Yrotation Zrotation
						JOINT HeadTop_End
						{
							OFFSET 0.000000 22.206207 2.192500
							CHANNELS 3 Xrotation Yrotation Zrotation
							End Site
							{
								OFFSET 0.000000 22.314178 0.000000
							}
						}
					}
				}
				JOINT LeftShoulder
				{
					OFFSET 12.896400 26.716293 -4.548400
					CHANNELS 3 Xrotation Yrotation Zrotation
					JOINT LeftArm
					{
						OFFSET 19.027000 -4.857010 -1.718400
						CHANNELS 3 Xrotation Yrotation Zrotation
						JOINT LeftForeArm
						{
							OFFSET 24.179897 0.000000 0.000000
							CHANNELS 3 Xrotation Yrotation Zrotation
							JOINT LeftHand
							{
								OFFSET 27.156403 0.000000 0.000000
								CHANNELS 3 Xrotation Yrotation Zrotation
								JOINT LeftHandIndex1
								{
									OFFSET 16.441200 0.000000 0.000000
									CHANNELS 3 Xrotation Yrotation Zrotation
									JOINT LeftHandIndex2
									{
										OFFSET 4.821899 0.000000 0.000000
										CHANNELS 3 Xrotation Yrotation Zrotation
										JOINT LeftHandIndex3
										{
											OFFSET 6.386497 0.000000 0.000000
											CHANNELS 3 Xrotation Yrotation Zrotation
											JOINT LeftHandIndex4
											{
												OFFSET 5.188988 0.000000 0.000000
												CHANNELS 3 Xrotation Yrotation Zrotation
												End Site
												{
													OFFSET -0.178703 5.185913 0.000177
												}
											}
										}
									}
								}
								JOINT LeftHandThumb1
								{
									OFFSET 6.534897 -5.032593 5.900300
									CHANNELS 3 Xrotation Yrotation Zrotation
									JOINT LeftHandThumb2
									{
										OFFSET 3.818176 -2.204422 2.204423
										CHANNELS 3 Xrotation Yrotation Zrotation
										JOINT LeftHandThumb3
										{
											OFFSET 3.252098 -1.877594 1.877601
											CHANNELS 3 Xrotation Yrotation Zrotation
											JOINT LeftHandThumb4
											{
												OFFSET 5.251778 -3.032120 3.032117
												CHANNELS 3 Xrotation Yrotation Zrotation
												End Site
												{
													OFFSET 0.000023 6.780014 0.000000
												}
											}
										}
									}
								}
							}
						}
					}
				}
				JOINT RightShoulder
				{
					OFFSET -12.896300 26.716293 -4.548400
					CHANNELS 3 Xrotation Yrotation Zrotation
					JOINT RightArm
					{
						OFFSET -19.027000 -4.857010 -1.718400
						CHANNELS 3 Xrotation Yrotation Zrotation
						JOINT RightForeArm
						{
							OFFSET -24.179897 0.000000 0.000000
							CHANNELS 3 Xrotation Yrotation Zrotation
							JOINT RightHand
							{
								OFFSET -27.156403 0.000000 0.000000
								CHANNELS 3 Xrotation Yrotation Zrotation
								JOINT RightHandThumb1
								{
									OFFSET -6.591202 -4.852203 5.988100
									CHANNELS 3 Xrotation Yrotation Zrotation
									JOINT RightHandThumb2
									{
										OFFSET -3.818176 -2.204422 2.204423
										CHANNELS 3 Xrotation Yrotation Zrotation
										JOINT RightHandThumb3
										{
											OFFSET -3.252098 -1.877594 1.877601
											CHANNELS 3 Xrotation Yrotation Zrotation
											JOINT RightHandThumb4
											{
												OFFSET -5.251778 -3.032120 3.032117
												CHANNELS 3 Xrotation Yrotation Zrotation
												End Site
												{
													OFFSET -0.000023 6.780014 0.000000
												}
											}
										}
									}
								}
								JOINT RightHandIndex1
								{
									OFFSET -16.029404 0.000000 0.000000
									CHANNELS 3 Xrotation Yrotation Zrotation
									JOINT RightHandIndex2
									{
										OFFSET -5.213303 0.000000 0.000000
										CHANNELS 3 Xrotation Yrotation Zrotation
										JOINT RightHandIndex3
										{
											OFFSET -6.386528 0.000000 0.000000
											CHANNELS 3 Xrotation Yrotation Zrotation
											JOINT RightHandIndex4
											{
												OFFSET -5.189026 0.000000 0.000000
												CHANNELS 3 Xrotation Yrotation Zrotation
												End Site
												{
													OFFSET 0.236702 5.183624 0.001972
												}
											}
										}
									}
								}
							}
						}
					}
				}
			}
		}
	}
	JOINT LeftUpLeg
	{
		OFFSET 14.073000 -7.904099 -1.463000
		CHANNELS 3 Xrotation Yrotation Zrotation
		JOINT LeftLeg
		{
			OFFSET -0.109806 -34.073280 4.093200
			CHANNELS 3 Xrotation Yrotation Zrotation
			JOINT LeftFoot
			{
				OFFSET 0.109806 -29.899420 -6.319000
				CHANNELS 3 Xrotation Yrotation Zrotation
				JOINT LeftToeBase
				{
					OFFSET 1.551100 -14.988700 20.535801
					CHANNELS 3 Xrotation Yrotation Zrotation
					JOINT LeftToe_End
					{
						OFFSET 0.221200 0.570800 13.248301
						CHANNELS 3 Xrotation Yrotation Zrotation
						End Site
						{
							OFFSET 0.000000 13.262435 0.000000
						}
					}
				}
			}
		}
	}
	JOINT RightUpLeg
	{
		OFFSET -13.839300 -7.904099 -1.463000
		CHANNELS 3 Xrotation Yrotation Zrotation
		JOINT RightLeg
		{
			OFFSET 0.109694 -34.073219 4.093300
			CHANNELS 3 Xrotation Yrotation Zrotation
			JOINT RightFoot
			{
				OFFSET -0.109694 -29.899384 -6.319200
				CHANNELS 3 Xrotation Yrotation Zrotation
				JOINT RightToeBase
				{
					OFFSET -1.551100 -14.988700 20.535801
					CHANNELS 3 Xrotation Yrotation Zrotation
					JOINT RightToe_End
					{
						OFFSET -0.221200 0.570900 13.248299
						CHANNELS 3 Xrotation Yrotation Zrotation
						End Site
						{
							OFFSET 0.000000 13.262440 0.000000
						}
					}
				}
			}
		}
	}
}
MOTION
Frames: 4
Frame Time: 0.033333
-1.000530 116.629799 95.134567 -32.015269 -11.276614 -16.346355 13.801919 -2.405384 -0.347121 26.618413 -6.757957 0.941647 26.544147 -7.052638 0.911617 -0.610696 5.269531 -3.810368 10.675787 21.385939 -12.972025 -0.000001 0.000000 0.000000 0.900236 -1.808579 -1.018101 -56.785380 -28.162897 -42.715423 0.000001 -37.309198 0.000003 1.012003 -3.215377 31.407638 0.077489 1.032174 -8.585898 0.077479 1.032170 -8.585953 0.077481 1.032157 -8.585935 -0.000001 0.000001 0.000004 -13.681243 -0.392789 11.541753 3.946761 7.971412 0.752856 -0.575608 1.586261 2.542381 -0.000002 -0.000000 0.000000 1.542112 1.622970 11.272620 -47.987307 28.837636 51.213301 -0.000015 10.781552 0.000014 -2.187510 11.189648 14.993059 -4.547248 13.417128 -19.201562 4.645110 -8.657007 -0.231386 -1.269796 0.125950 -2.098710 0.000001 0.000001 0.000002 0.046100 -0.801022 6.587887 0.046104 -0.801037 6.587977 0.046111 -0.801047 6.587917 0.000001 -0.000001 -0.000001 -38.533721 3.331069 12.914970 87.788135 -10.160054 -1.099119 20.460592 -21.764668 -34.620706 0.000001 0.000013 0.000024 -0.000000 -0.000002 -0.000003 -59.472335 3.583894 -4.897964 64.248366 10.474307 0.665269 7.952224 3.518469 9.261926 -0.000004 0.000002 0.000009 -0.000001 -0.000001 0.000000 
-0.825811 119.067291 99.793686 -34.590516 -14.385970 -16.426043 15.813794 -1.933805 -2.500440 29.632824 -5.546298 -1.471969 29.509822 -6.154973 -1.442583 -0.893784 5.400046 -4.074239 9.955929 21.723589 -13.364810 0.000004 -0.000000 0.000000 0.770211 -0.827725 -1.381277 -58.380161 -26.613021 -39.041447 -0.000020 -43.052933 -0.000013 -16.888155 -7.262583 35.736892 0.077485 1.032174 -8.585900 0.077483 1.032171 -8.585952 0.077483 1.032156 -8.585935 0.000000 -0.000000 -0.000001 -13.681247 -0.392789 11.541750 3.946760 7.971410 0.752856 -0.575605 1.586259 2.542379 -0.000001 -0.000000 -0.000002 1.352288 1.448538 10.175010 -63.846587 35.490974 59.361024 0.000003 15.772992 -0.000007 -1.158012 12.809162 11.771380 -4.547243 13.417129 -19.201561 4.645112 -8.657011 -0.231385 -1.269792 0.125953 -2.098705 -0.000003 -0.000001 0.000002 0.046104 -0.801022 6.587890 0.046103 -0.801035 6.587977 0.046109 -0.801047 6.587914 -0.000001 -0.000002 0.000001 -62.571302 -3.964645 11.986736 94.917144 -10.110033 -0.842615 29.011382 -20.063392 -34.817460 0.000005 0.000002 0.000001 0.000002 0.000001 -0.000000 -50.872994 4.053176 -6.164741 65.606972 12.003689 0.992094 8.588879 2.539891 7.004912 0.000001 0.000001 0.000006 0.000000 0.000000 -0.000000 
-1.016655 121.496201 102.942665 -36.762998 -17.106590 -14.005594 17.680725 -3.387450 -5.612421 31.767521 -4.631353 -4.784093 31.619138 -5.475438 -4.691311 0.048612 5.347721 -4.284632 12.847996 21.262710 -15.565895 -0.000001 -0.000000 0.000000 0.658664 -0.017561 -1.632677 -61.325933 -25.389905 -33.703859 -0.000008 -50.085753 -0.000007 -23.464162 -12.661198 35.789136 0.077482 1.032174 -8.585899 0.077480 1.032171 -8.585951 0.077480 1.032156 -8.585931 -0.000001 -0.000000 -0.000000 -13.681247 -0.392790 11.541754 3.946760 7.971411 0.752858 -0.575605 1.586260 2.542382 -0.000000 0.000000 -0.000002 1.136090 1.240290 8.876232 -76.046199 39.719189 63.521586 -0.000008 25.000897 0.000007 0.467898 12.212581 7.822256 -4.547250 13.417133 -19.201561 4.645101 -8.657011 -0.231385 -1.269800 0.125948 -2.098708 -0.000001 0.000000 -0.000000 0.046102 -0.801019 6.587893 0.046105 -0.801040 6.587978 0.046114 -0.801045 6.587915 -0.000003 -0.000003 0.000001 -81.235968 -12.659274 6.822256 85.879343 -4.895281 0.887936 33.922667 -11.987105 -33.901401 -0.000012 0.000002 -0.000008 -0.000000 -0.000001 0.000000 -40.501246 3.065080 -9.956055 61.701573 11.626121 1.183309 13.986752 2.966527 4.517426 0.000011 0.000004 -0.000001 -0.000000 -0.000002 -0.000000 
-1.610392 121.167778 106.195877 -37.629650 -20.470181 -12.130295 17.439554 -4.483871 -6.020368 31.031359 -4.093279 -7.273880 30.935744 -4.640832 -7.220727 2.572223 5.339424 -4.897514 16.649553 21.197566 -17.984257 0.000002 0.000000 0.000000 0.499063 1.200944 -2.152689 -64.118968 -24.736288 -27.110424 -0.000005 -56.785202 -0.000005 -29.675642 -21.388153 31.846505 0.077484 1.032172 -8.585899 0.077481 1.032170 -8.585951 0.077480 1.032158 -8.585930 0.000001 -0.000001 -0.000000 -13.681245 -0.392786 11.541749 3.946761 7.971410 0.752859 -0.575604 1.586261 2.542381 -0.000000 -0.000000 0.000001 0.941914 0.969329 7.718101 -84.437052 45.003874 63.117648 -0.000013 34.468533 0.000008 -5.745469 9.800876 4.958249 -4.547245 13.417131 -19.201561 4.645105 -8.657008 -0.231386 -1.269794 0.125950 -2.098706 -0.000000 -0.000000 -0.000001 0.046102 -0.801020 6.587894 0.046106 -0.801037 6.587977 0.046109 -0.801051 6.587916 -0.000001 0.000001 -0.000002 -87.702354 -21.297725 8.763899 61.014408 2.498083 2.876316 39.177046 -12.495120 -33.941075 -0.000057 -0.000014 -0.000008 0.000000 0.000000 -0.000000 -32.477310 -0.012240 -13.818466 55.330369 11.321432 1.304932 21.983370 4.655649 4.008947 0.000003 -0.000002 0.000000 0.000000 -0.000000 -0.000001 
